<?xml version="1.0" encoding="utf-8"?>
<!-- Generator: Adobe Illustrator 21.0.0, SVG Export Plug-In . SVG Version: 6.00 Build 0)  -->
<svg version="1.1" id="Camada_1" xmlns="http://www.w3.org/2000/svg" xmlns:xlink="http://www.w3.org/1999/xlink" x="0px" y="0px"
	 viewBox="0 0 866 302.6" enable-background="new 0 0 866 302.6" xml:space="preserve">
<g>
	<g id="Layer_1_110_">
		<g>
			<path fill="#FFFFFF" d="M677.1,101.6l-17-16c2-3.6,3.2-7.7,3.2-12.1c0-13.9-11.3-25.2-25.2-25.2c-13.9,0-25.2,11.3-25.2,25.2
				s11.3,25.2,25.2,25.2c4.9,0,9.4-1.5,13.3-3.9l17,16C670.9,107.4,673.8,104.3,677.1,101.6z"/>
			<path fill="#FFFFFF" d="M748.6,99.6l22.6-38c2.2,0.6,4.5,1.1,6.9,1.1c13.9,0,25.2-11.3,25.2-25.2c0-13.9-11.3-25.2-25.2-25.2
				c-13.9,0-25.2,11.3-25.2,25.2c0,6.9,2.8,13.1,7.3,17.7l-22.5,37.9C741.6,94.8,745.3,97,748.6,99.6z"/>
			<path fill="#FFFFFF" d="M826.7,131.3c-10.8,0-20,6.9-23.6,16.5l-31.3-3.1c0,0.2,0,0.5,0,0.7c0,4.1-0.5,8.1-1.3,11.9l31.3,3.1
				c1.9,12,12.2,21.2,24.8,21.2c13.9,0,25.2-11.3,25.2-25.2C851.9,142.6,840.6,131.3,826.7,131.3z"/>
			<path fill="#FFFFFF" d="M740.2,230.4l-7-30.6c-4,1.4-8.1,2.4-12.4,2.9l7,30.6c-8,4.2-13.6,12.5-13.6,22.2
				c0,13.9,11.3,25.2,25.2,25.2c13.9,0,25.2-11.3,25.2-25.2C764.6,241.8,753.7,230.8,740.2,230.4z"/>
			<path fill="#FFFFFF" d="M658,157.6l-39,13.1c-4.5-6.9-12.3-11.4-21.1-11.4c-13.9,0-25.2,11.3-25.2,25.2
				c0,13.9,11.3,25.2,25.2,25.2c13.9,0,25.2-11.3,25.2-25.2c0-0.6-0.1-1.1-0.2-1.7l39.1-13.1C660.3,165.8,658.9,161.8,658,157.6z"/>
			<circle fill="#FFFFFF" cx="714.3" cy="145.4" r="43.2"/>
		</g>
	</g>
</g>
<g>
	<path fill="#FFFFFF" d="M90.3,249.3c-13.4,30.1-25.2,47.4-46.8,48.1c-10.1,0.3-23.6-2.6-34.4-9.8l6.2-23.9
		c7.5,3.9,14.4,6.5,20.9,6.5c13.4,0,22.9-18,22.9-36L1.3,93.2h34l41.2,105l40.9-105h34L90.3,249.3z"/>
	<path fill="#FFFFFF" d="M304,175.6c0,48.1-37.6,83.8-84.1,83.8s-84.1-35.7-84.1-83.8c0-48.1,37.6-84.1,84.1-84.1
		S304,127.5,304,175.6z M169.5,175.6c0,36,22.6,56.3,50.4,56.3s50.4-20.3,50.4-56.3c0-36.3-22.6-56.6-50.4-56.6
		S169.5,139.3,169.5,175.6z"/>
	<path fill="#FFFFFF" d="M378.6,119c-30.1,0-36.6,26.8-36.6,61.2v77.6h-33.7V93.2H342v27.5c3.9-15.1,18-29.1,40.6-29.1
		c12.1,0,20.9,4.9,26.2,11.5l-7.2,26.5C399.2,127.2,392,119,378.6,119z"/>
	<path fill="#FFFFFF" d="M445.7,193.3v64.5H412V2.5h33.7v150.2l69.7-59.6h47.8l-75.3,65.8l80.2,98.8h-39.3L464,177.9L445.7,193.3z"
		/>
</g>
</svg>
